<?xml version="1.0" encoding="UTF-8" standalone="no"?>
<!DOCTYPE svg PUBLIC "-//W3C//DTD SVG 1.1//EN"
 "http://www.w3.org/Graphics/SVG/1.1/DTD/svg11.dtd">
<!-- Generated by graphviz version 2.43.0 (0)
 -->
<!-- Title: %3 Pages: 1 -->
<svg width="658pt" height="268pt"
 viewBox="0.00 0.00 658.00 268.00" xmlns="http://www.w3.org/2000/svg" xmlns:xlink="http://www.w3.org/1999/xlink">
<g id="graph0" class="graph" transform="scale(1 1) rotate(0) translate(4 264)">
<title>%3</title>
<polygon fill="white" stroke="transparent" points="-4,4 -4,-264 654,-264 654,4 -4,4"/>
<!-- A -->
<g id="node1" class="node">
<title>A</title>
<path fill="white" stroke="black" d="M461,-260C461,-260 333,-260 333,-260 327,-260 321,-254 321,-248 321,-248 321,-234 321,-234 321,-228 327,-222 333,-222 333,-222 461,-222 461,-222 467,-222 473,-228 473,-234 473,-234 473,-248 473,-248 473,-254 467,-260 461,-260"/>
<text text-anchor="middle" x="397" y="-244.8" font-family="Arial" font-size="14.00">Registros identificados</text>
<text text-anchor="middle" x="397" y="-229.8" font-family="Arial" font-size="14.00">Total = 60</text>
</g>
<!-- B -->
<g id="node2" class="node">
<title>B</title>
<path fill="white" stroke="black" d="M377.5,-186C377.5,-186 154.5,-186 154.5,-186 148.5,-186 142.5,-180 142.5,-174 142.5,-174 142.5,-160 142.5,-160 142.5,-154 148.5,-148 154.5,-148 154.5,-148 377.5,-148 377.5,-148 383.5,-148 389.5,-154 389.5,-160 389.5,-160 389.5,-174 389.5,-174 389.5,-180 383.5,-186 377.5,-186"/>
<text text-anchor="middle" x="266" y="-170.8" font-family="Arial" font-size="14.00">Registros após remoção de duplicatas</text>
<text text-anchor="middle" x="266" y="-155.8" font-family="Arial" font-size="14.00">Total = 60</text>
</g>
<!-- A&#45;&gt;B -->
<g id="edge1" class="edge">
<title>A&#45;&gt;B</title>
<path fill="none" stroke="black" d="M363.94,-221.83C347.03,-212.54 326.26,-201.12 308.21,-191.2"/>
<polygon fill="black" stroke="black" points="309.5,-187.91 299.05,-186.16 306.12,-194.05 309.5,-187.91"/>
</g>
<!-- C -->
<g id="node3" class="node">
<title>C</title>
<path fill="white" stroke="black" d="M638,-186C638,-186 420,-186 420,-186 414,-186 408,-180 408,-174 408,-174 408,-160 408,-160 408,-154 414,-148 420,-148 420,-148 638,-148 638,-148 644,-148 650,-154 650,-160 650,-160 650,-174 650,-174 650,-180 644,-186 638,-186"/>
<text text-anchor="middle" x="529" y="-170.8" font-family="Arial" font-size="14.00">Registros removidos como duplicatas</text>
<text text-anchor="middle" x="529" y="-155.8" font-family="Arial" font-size="14.00">Total = 0</text>
</g>
<!-- A&#45;&gt;C -->
<g id="edge2" class="edge">
<title>A&#45;&gt;C</title>
<path fill="none" stroke="black" d="M430.31,-221.83C447.43,-212.49 468.47,-201.02 486.72,-191.06"/>
<polygon fill="black" stroke="black" points="488.6,-194.02 495.7,-186.16 485.25,-187.88 488.6,-194.02"/>
</g>
<!-- D -->
<g id="node4" class="node">
<title>D</title>
<path fill="white" stroke="black" d="M404,-112C404,-112 128,-112 128,-112 122,-112 116,-106 116,-100 116,-100 116,-86 116,-86 116,-80 122,-74 128,-74 128,-74 404,-74 404,-74 410,-74 416,-80 416,-86 416,-86 416,-100 416,-100 416,-106 410,-112 404,-112"/>
<text text-anchor="middle" x="266" y="-96.8" font-family="Arial" font-size="14.00">Registros avaliados por similaridade semântica</text>
<text text-anchor="middle" x="266" y="-81.8" font-family="Arial" font-size="14.00">Total = 60</text>
</g>
<!-- B&#45;&gt;D -->
<g id="edge3" class="edge">
<title>B&#45;&gt;D</title>
<path fill="none" stroke="black" d="M266,-147.83C266,-140.13 266,-130.97 266,-122.42"/>
<polygon fill="black" stroke="black" points="269.5,-122.41 266,-112.41 262.5,-122.41 269.5,-122.41"/>
</g>
<!-- E -->
<g id="node5" class="node">
<title>E</title>
<path fill="white" stroke="black" d="M258,-38C258,-38 12,-38 12,-38 6,-38 0,-32 0,-26 0,-26 0,-12 0,-12 0,-6 6,0 12,0 12,0 258,0 258,0 264,0 270,-6 270,-12 270,-12 270,-26 270,-26 270,-32 264,-38 258,-38"/>
<text text-anchor="middle" x="135" y="-22.8" font-family="Arial" font-size="14.00">Registros excluídos por baixa similaridade</text>
<text text-anchor="middle" x="135" y="-7.8" font-family="Arial" font-size="14.00">Total = 40</text>
</g>
<!-- D&#45;&gt;E -->
<g id="edge4" class="edge">
<title>D&#45;&gt;E</title>
<path fill="none" stroke="black" d="M232.94,-73.83C216.03,-64.54 195.26,-53.12 177.21,-43.2"/>
<polygon fill="black" stroke="black" points="178.5,-39.91 168.05,-38.16 175.12,-46.05 178.5,-39.91"/>
</g>
<!-- F -->
<g id="node6" class="node">
<title>F</title>
<path fill="white" stroke="black" d="M493.5,-38C493.5,-38 300.5,-38 300.5,-38 294.5,-38 288.5,-32 288.5,-26 288.5,-26 288.5,-12 288.5,-12 288.5,-6 294.5,0 300.5,0 300.5,0 493.5,0 493.5,0 499.5,0 505.5,-6 505.5,-12 505.5,-12 505.5,-26 505.5,-26 505.5,-32 499.5,-38 493.5,-38"/>
<text text-anchor="middle" x="397" y="-22.8" font-family="Arial" font-size="14.00">Estudos incluídos na síntese final</text>
<text text-anchor="middle" x="397" y="-7.8" font-family="Arial" font-size="14.00">Total = 20</text>
</g>
<!-- D&#45;&gt;F -->
<g id="edge5" class="edge">
<title>D&#45;&gt;F</title>
<path fill="none" stroke="black" d="M299.06,-73.83C315.97,-64.54 336.74,-53.12 354.79,-43.2"/>
<polygon fill="black" stroke="black" points="356.88,-46.05 363.95,-38.16 353.5,-39.91 356.88,-46.05"/>
</g>
</g>
</svg>
